# ProBuilder 6.0.7
# https://unity3d.com/unity/features/worldbuilding/probuilder
# 9/24/2025 12:32:02 PM

mtllib ./Plate.mtl
o Plate

g Cube
v -18.52631 -23.62853 98.58495
v -18.52631 -1.500459 16.00171
v -26.77035 -12.69946 109.289
v -26.77035 13.31642 12.19624
v 18.52631 -1.500459 16.00171
v 18.52631 -23.62853 98.58495
v 26.77035 13.31642 12.19624
v 26.77035 -12.69946 109.289
v 25.15458 -1.500459 16.00171
v -25.15458 -1.500459 16.00171
v 25.15458 -23.62853 98.58495
v -25.15458 -23.62853 98.58495
v 36.34814 13.31642 12.19624
v 36.34814 -12.69946 109.289
v -36.34814 -12.69946 109.289
v -36.34814 13.31642 12.19624

vt 7.510696 -14.67085
vt 93.00715 -14.67085
vt 0 1
vt 100.5178 0.9999981
vt 0 0.9999981
vt 100.5178 1
vt 0 -84.49645
vt 50.30916 -84.49645
vt 50.30916 1
vt 0 -99.51783
vt 9.577787 -99.51783
vt 9.577787 1
vt 17.82182 1
vt 6.628267 -14.29777
vt 8.244036 1
vt 0 -14.29777
vt 6.628267 1
vt 6.628267 -84.49645
vt 11.19356 -14.29776
vt 17.82182 -14.29776

vn 0.8504382 0.5081494 0.136158
vn -0.8504383 0.5081494 0.136158
vn 0 0.9659259 0.2588186
vn 0 -0.6997147 0.7144224
vn 0 -0.9659259 -0.2588186
vn 8.948812E-09 -0.2487598 -0.9685652

usemtl Snow
f 1/1/1 2/2/1 4/4/1 3/3/1
f 5/1/2 6/2/2 8/6/2 7/5/2
f 9/7/3 10/8/3 12/9/3 11/3/3
f 7/11/3 8/12/3 14/3/3 13/10/3
f 8/15/4 6/16/4 11/14/4 14/13/4
f 6/3/5 5/7/5 9/18/5 11/17/5
f 5/20/6 7/12/6 13/3/6 9/19/6
f 3/3/3 4/10/3 16/11/3 15/12/3
f 4/15/6 2/16/6 10/14/6 16/13/6
f 2/18/5 1/17/5 12/3/5 10/7/5
f 1/20/4 3/12/4 15/3/4 12/19/4

