# ProBuilder 6.0.7
# https://unity3d.com/unity/features/worldbuilding/probuilder
# 9/23/2025 10:50:20 PM

mtllib ./Spawn.mtl
o Spawn

g Cube
v -20 -1.55 16
v -20 -1.55 -15
v -27.35387 12.55 15.01541
v -27.35387 12.55 -26.01541
v 20 -1.55 -15
v 27.35387 12.55 -26.01541
v 20 -1.55 16
v 27.35387 12.55 15.01541

vt 0 -14.9025
vt 31 -14.9025
vt 0.9845943 1
vt 42.0154 1
vt 7.353874 -16.89271
vt 47.35387 -16.89271
vt 0 1
vt 54.70775 1
vt 11.01541 -14.9025
vt 42.0154 -14.9025
vt 41.03081 1
vt 0 -30
vt 40 -30
vt 40 1

vn 0.8866531 0.4624351 0
vn 0 0.6156364 0.7880303
vn -0.8866531 0.4624352 0
vn 0 1 0

usemtl Snow
f 1/1/1 2/2/1 4/4/1 3/3/1
f 2/5/2 5/6/2 6/8/2 4/7/2
f 5/9/3 7/10/3 8/11/3 6/7/3
f 5/12/4 2/13/4 1/14/4 7/7/4

